<svg width="124" height="38" viewBox="0 0 124 38" fill="none" xmlns="http://www.w3.org/2000/svg">
<g clip-path="url(#clip0_303_13)">
<path d="M119.812 21.3633H115.189L114.311 24H111.507L116.271 11.2031H118.714L123.504 24H120.7L119.812 21.3633ZM115.901 19.2275H119.101L117.492 14.4375L115.901 19.2275Z" fill="white"/>
<path d="M110.848 27.1465H108.413V24H100.696V27.1377H98.2002L98.0596 21.8818H99.0264C99.5479 21.4482 99.9492 20.8125 100.23 19.9746C100.518 19.1309 100.711 18.0879 100.811 16.8457L101.18 11.2031H109.564V21.8818H111.059L110.848 27.1465ZM102.05 21.8818H106.928V13.3389H103.685L103.465 16.7051C103.289 18.9609 102.817 20.6865 102.05 21.8818Z" fill="white"/>
<path d="M94.1836 14.7275C94.1836 14.2412 93.9932 13.8604 93.6123 13.585C93.2314 13.3037 92.7275 13.1631 92.1006 13.1631C91.5381 13.1631 91.0693 13.3037 90.6943 13.585C90.3252 13.8604 90.1406 14.2207 90.1406 14.666H87.5039C87.5039 13.9746 87.6973 13.3535 88.084 12.8027C88.4766 12.2461 89.0303 11.8125 89.7451 11.502C90.4658 11.1914 91.251 11.0361 92.1006 11.0361C93.5771 11.0361 94.7344 11.3525 95.5723 11.9854C96.4102 12.6182 96.8291 13.5146 96.8291 14.6748C96.8291 15.2432 96.6562 15.7705 96.3105 16.2568C95.9707 16.7432 95.4844 17.1328 94.8516 17.4258C95.5547 17.6719 96.0938 18.0469 96.4688 18.5508C96.8438 19.0488 97.0312 19.6699 97.0312 20.4141C97.0312 21.5625 96.5801 22.4766 95.6777 23.1562C94.7812 23.8301 93.5889 24.167 92.1006 24.167C91.1689 24.167 90.3311 24.0088 89.5869 23.6924C88.8428 23.3701 88.2773 22.9336 87.8906 22.3828C87.5098 21.8262 87.3193 21.1816 87.3193 20.4492H89.9736C89.9736 20.9062 90.1729 21.29 90.5713 21.6006C90.9697 21.9053 91.4795 22.0576 92.1006 22.0576C92.8037 22.0576 93.3574 21.8994 93.7617 21.583C94.1719 21.2666 94.377 20.8652 94.377 20.3789C94.377 19.7109 94.1953 19.2334 93.832 18.9463C93.4688 18.6533 92.9385 18.5068 92.2412 18.5068H90.668V16.4414H92.2939C93.5537 16.4238 94.1836 15.8525 94.1836 14.7275Z" fill="white"/>
<path d="M85.4473 18.4541H80.3848V21.8818H86.3262V24H77.748V11.2031H86.3086V13.3389H80.3848V16.3887H85.4473V18.4541Z" fill="white"/>
<path d="M66.252 24V11.2031H70.7344C72.2871 11.2031 73.4648 11.502 74.2676 12.0996C75.0703 12.6914 75.4717 13.5615 75.4717 14.71C75.4717 15.3369 75.3105 15.8906 74.9883 16.3711C74.666 16.8457 74.2178 17.1943 73.6436 17.417C74.2998 17.5811 74.8154 17.9121 75.1904 18.4102C75.5713 18.9082 75.7617 19.5176 75.7617 20.2383C75.7617 21.4688 75.3691 22.4004 74.584 23.0332C73.7988 23.666 72.6797 23.9883 71.2266 24H66.252ZM68.8887 18.4277V21.8818H71.1475C71.7686 21.8818 72.252 21.7354 72.5977 21.4424C72.9492 21.1436 73.125 20.7334 73.125 20.2119C73.125 19.04 72.5186 18.4453 71.3057 18.4277H68.8887ZM68.8887 16.5645H70.8398C72.1699 16.541 72.835 16.0107 72.835 14.9736C72.835 14.3936 72.665 13.9775 72.3252 13.7256C71.9912 13.4678 71.4609 13.3389 70.7344 13.3389H68.8887V16.5645Z" fill="white"/>
<path d="M61.4531 14.7275C61.4531 14.2412 61.2627 13.8604 60.8818 13.585C60.501 13.3037 59.9971 13.1631 59.3701 13.1631C58.8076 13.1631 58.3389 13.3037 57.9639 13.585C57.5947 13.8604 57.4102 14.2207 57.4102 14.666H54.7734C54.7734 13.9746 54.9668 13.3535 55.3535 12.8027C55.7461 12.2461 56.2998 11.8125 57.0146 11.502C57.7354 11.1914 58.5205 11.0361 59.3701 11.0361C60.8467 11.0361 62.0039 11.3525 62.8418 11.9854C63.6797 12.6182 64.0986 13.5146 64.0986 14.6748C64.0986 15.2432 63.9258 15.7705 63.5801 16.2568C63.2402 16.7432 62.7539 17.1328 62.1211 17.4258C62.8242 17.6719 63.3633 18.0469 63.7383 18.5508C64.1133 19.0488 64.3008 19.6699 64.3008 20.4141C64.3008 21.5625 63.8496 22.4766 62.9473 23.1562C62.0508 23.8301 60.8584 24.167 59.3701 24.167C58.4385 24.167 57.6006 24.0088 56.8564 23.6924C56.1123 23.3701 55.5469 22.9336 55.1602 22.3828C54.7793 21.8262 54.5889 21.1816 54.5889 20.4492H57.2432C57.2432 20.9062 57.4424 21.29 57.8408 21.6006C58.2393 21.9053 58.749 22.0576 59.3701 22.0576C60.0732 22.0576 60.627 21.8994 61.0312 21.583C61.4414 21.2666 61.6465 20.8652 61.6465 20.3789C61.6465 19.7109 61.4648 19.2334 61.1016 18.9463C60.7383 18.6533 60.208 18.5068 59.5107 18.5068H57.9375V16.4414H59.5635C60.8232 16.4238 61.4531 15.8525 61.4531 14.7275Z" fill="white"/>
<path fill-rule="evenodd" clip-rule="evenodd" d="M19 0.0622959L14.4525 14.2033H0L4.04918 17.2557H16.6951L19 10.1541L21.1803 17.2557H33.9508L38 14.2033H23.5475L19 0.0622959ZM29.8393 20.4328H22.1148L24.7311 28.9672L18.9377 24.5443L12.8328 28.9672L15.6361 20.4328H8.09836L11.6492 23.1115L7.28852 37.0656L19 28.4688L30.6492 37.0656L26.2885 23.1115L29.8393 20.4328Z" fill="white"/>
</g>
<defs>
<clipPath id="clip0_303_13">
<rect width="124" height="38" fill="white"/>
</clipPath>
</defs>
</svg>
