<svg width="30" height="63" viewBox="0 0 30 63" fill="none" xmlns="http://www.w3.org/2000/svg">
<path fill-rule="evenodd" clip-rule="evenodd" d="M10.6553 0H19.3449C25.138 0 29.8449 4.7069 29.8449 10.5V31.7069C29.8449 39.8793 23.2242 46.5517 15.0001 46.5517C6.77596 46.5517 0.155273 39.8793 0.155273 31.7069V10.5C0.155273 4.7069 4.86217 0 10.6553 0ZM26.8967 10.5C26.8967 6.31034 23.4829 2.94828 19.3449 2.94828H10.6553C6.46562 2.94828 3.10355 6.36207 3.10355 10.5V31.7069C3.10355 38.2759 8.43114 43.6035 15.0001 43.6035C21.5691 43.6035 26.8967 38.2759 26.8967 31.7069V10.5Z" fill="#33353F"/>
<path d="M14.7669 55.6805C14.6117 55.6805 14.4048 55.6288 14.2496 55.5253L9.69789 52.3184C9.2841 52.0598 9.18065 51.4908 9.491 51.077C9.74962 50.6632 10.3186 50.5598 10.7324 50.8701L14.7669 53.715L18.8013 50.8701C19.2151 50.6115 19.7324 50.6632 20.0427 51.077C20.3013 51.4908 20.2496 52.0081 19.8358 52.3184L15.2841 55.5253C15.1289 55.6288 14.922 55.6805 14.7669 55.6805Z" fill="#33353F"/>
<path d="M15.2839 62.9218C15.1288 62.9218 14.9219 62.8701 14.7667 62.7667L10.215 59.5598C9.80119 59.3011 9.69774 58.7322 10.0081 58.3184C10.2667 57.9046 10.8357 57.8011 11.2495 58.1115L15.2839 60.9563L19.3184 58.1115C19.7322 57.8529 20.2495 57.9046 20.5598 58.3184C20.8184 58.7322 20.7667 59.2494 20.3529 59.5598L15.8012 62.7667C15.646 62.8701 15.4908 62.9218 15.2839 62.9218Z" fill="#33353F"/>
<path d="M15.0003 16.1896C14.0176 16.1896 13.2417 15.4138 13.2417 14.431V10.5517C13.2417 9.56895 14.0176 8.79309 15.0003 8.79309C15.9831 8.79309 16.7589 9.56895 16.7589 10.5517V14.431C16.7589 15.4138 15.9831 16.1896 15.0003 16.1896Z" fill="#33353F"/>
</svg>
